<svg width="24" height="24" viewBox="0 0 24 24" fill="none" xmlns="http://www.w3.org/2000/svg">
<path fill-rule="evenodd" clip-rule="evenodd" d="M12 4.25C10.7574 4.25 9.75 5.25736 9.75 6.5C9.75 7.74264 10.7574 8.75 12 8.75C13.2426 8.75 14.25 7.74264 14.25 6.5C14.25 5.25736 13.2426 4.25 12 4.25ZM8.25 6.5C8.25 4.42893 9.92893 2.75 12 2.75C14.0711 2.75 15.75 4.42893 15.75 6.5C15.75 8.38828 14.3544 9.95059 12.5383 10.2117C15.7838 10.5059 18.25 13.4372 18.25 16.8956C18.25 17.8067 18.0801 18.5675 17.7076 19.1765C17.3281 19.7969 16.7817 20.189 16.1632 20.4318C15.5603 20.6685 14.8787 20.768 14.1905 20.8137C13.5689 20.8549 12.8943 20.8545 12.2194 20.854C12.1463 20.8539 12.0731 20.8539 12 20.8539C11.9269 20.8539 11.8537 20.8539 11.7806 20.854C11.1057 20.8545 10.4311 20.8549 9.80946 20.8137C9.12132 20.768 8.43973 20.6685 7.83684 20.4318C7.21826 20.189 6.67191 19.7969 6.29241 19.1765C5.91991 18.5675 5.75 17.8067 5.75 16.8956C5.75 13.4372 8.21618 10.5059 11.4617 10.2117C9.64565 9.95059 8.25 8.38828 8.25 6.5ZM12 11.6874C9.43203 11.6874 7.25 13.9615 7.25 16.8956C7.25 17.6298 7.38789 18.0927 7.57203 18.3938C7.74915 18.6834 8.00827 18.8877 8.38499 19.0356C8.7774 19.1896 9.28097 19.2753 9.90885 19.317C10.4772 19.3547 11.0997 19.3543 11.7857 19.3539C11.8564 19.3539 11.9279 19.3539 12 19.3539C12.0721 19.3539 12.1436 19.3539 12.2143 19.3539C12.9003 19.3543 13.5228 19.3547 14.0912 19.317C14.719 19.2753 15.2226 19.1896 15.615 19.0356C15.9917 18.8877 16.2508 18.6834 16.428 18.3938C16.6121 18.0927 16.75 17.6298 16.75 16.8956C16.75 13.9615 14.568 11.6874 12 11.6874Z" fill="#242424"/>
</svg>
